<svg width="40" height="45" viewBox="0 0 40 45" fill="none" xmlns="http://www.w3.org/2000/svg">
	<mask id="mask0_0_173" style="mask-type:alpha" maskUnits="userSpaceOnUse" x="0" y="0" width="40" height="45">
		<path d="M20.0001 44.8438C14.4513 44.0566 9.37311 41.2931 5.69879 37.0614C2.02447 32.8296 0.000932343 27.4139 7.21657e-05 21.8096V13.8724C-0.00191113 12.8675 0.261184 11.8797 0.762816 11.0089C1.26445 10.1381 1.98687 9.41493 2.85721 8.91244L17.1429 0.752443C18.0061 0.259355 18.9831 0 19.9772 0C20.9713 0 21.9483 0.259355 22.8115 0.752443L37.1429 8.91244C38.0132 9.41493 38.7357 10.1381 39.2373 11.0089C39.7389 11.8797 40.002 12.8675 40.0001 13.8724V21.8039C40.0018 27.4095 37.9793 32.8272 34.3046 37.0604C30.6299 41.2936 25.5503 44.0576 20.0001 44.8438V44.8438Z" fill="black" />
	</mask>
	<g mask="url(#mask0_0_173)">
		<path d="M17.5126 -3.96005C16.9974 -3.81427 16.5023 -3.6048 16.0384 -3.33644L-0.664623 6.23896C-1.68061 6.8286 -2.52393 7.67717 -3.10951 8.69906C-3.69509 9.72094 -4.00221 10.88 -3.9999 12.0593V21.3732C-3.9999 21.4469 -3.9999 21.514 -3.9999 21.5878C-0.597008 24.1471 3.64953 25.3038 7.87228 24.8217C12.095 24.3396 15.9754 22.255 18.7206 18.9938C21.4659 15.7326 22.869 11.5407 22.6432 7.27463C22.4174 3.00852 20.5799 -1.01 17.5059 -3.96005H17.5126Z" fill="#16155E" />
	</g>
	<g filter="url(#filter0_b_0_173)">
		<path d="M20.0001 44.8438C14.4513 44.0566 9.37311 41.2931 5.69879 37.0614C2.02447 32.8296 0.000932343 27.4139 7.21657e-05 21.8096V13.8724C-0.00191113 12.8675 0.261184 11.8797 0.762816 11.0089C1.26445 10.1381 1.98687 9.41493 2.85721 8.91244L17.1429 0.752443C18.0061 0.259355 18.9831 0 19.9772 0C20.9713 0 21.9483 0.259355 22.8115 0.752443L37.1429 8.91244C38.0132 9.41493 38.7357 10.1381 39.2373 11.0089C39.7389 11.8797 40.002 12.8675 40.0001 13.8724V21.8039C40.0018 27.4095 37.9793 32.8272 34.3046 37.0604C30.6299 41.2936 25.5503 44.0576 20.0001 44.8438V44.8438Z" fill="black" fill-opacity="0.05" />
		<path d="M33.7172 36.5506C30.1896 40.6145 25.3222 43.2775 20.0001 44.058C14.6795 43.2765 9.81347 40.614 6.28608 36.5514C2.73461 32.4612 0.77871 27.2265 0.77785 21.8096C0.77785 21.8095 0.77785 21.8095 0.77785 21.8095L0.777851 13.8724L0.777848 13.8709C0.776135 13.0027 1.00342 12.1494 1.43677 11.3971C1.86985 10.6453 2.49343 10.0209 3.24466 9.58684C3.24514 9.58657 3.24562 9.58629 3.2461 9.58601L17.5287 1.42781L17.1753 0.809057L17.5287 1.4278C18.2744 1.00183 19.1184 0.777778 19.9772 0.777778C20.836 0.777778 21.68 1.00183 22.4257 1.42781L22.4266 1.42834L36.754 9.58601C36.7547 9.58638 36.7553 9.58675 36.7559 9.58712C37.507 10.0212 38.1304 10.6455 38.5634 11.3971C38.9967 12.1494 39.224 13.0027 39.2223 13.8709V13.8724V21.8039V21.8041C39.2239 27.2223 37.269 32.4589 33.7172 36.5506Z" stroke="url(#paint0_linear_0_173)" stroke-width="1.55556" />
	</g>
	<path d="M19.9997 38.4038C16.0426 37.8419 12.4205 35.873 9.79685 32.858C7.17322 29.8429 5.72375 25.9834 5.71399 21.9867V15.301C5.71441 14.8819 5.82562 14.4703 6.03636 14.108C6.2471 13.7458 6.54987 13.4457 6.91399 13.2381L18.8168 6.4324C19.1774 6.22753 19.585 6.11981 19.9997 6.11981C20.4144 6.11981 20.822 6.22753 21.1826 6.4324L33.0854 13.2381C33.4495 13.4457 33.7523 13.7458 33.963 14.108C34.1738 14.4703 34.285 14.8819 34.2854 15.301V21.9524C34.2851 25.9554 32.8398 29.8237 30.2152 32.8462C27.5906 35.8687 23.9631 37.8422 19.9997 38.4038V38.4038Z" fill="black" fill-opacity="0.4" />
	<g filter="url(#filter1_di_0_173)">
		<path d="M18.8818 18.775C19.3364 17.8437 20.6637 17.8437 21.1184 18.775L21.4977 19.5521C21.6778 19.9209 22.0281 20.1772 22.4341 20.2372L23.3069 20.3662C24.323 20.5164 24.73 21.7633 23.9982 22.484L23.3512 23.1211C23.0615 23.4064 22.9295 23.8151 22.9975 24.2159L23.1475 25.1005C23.3203 26.1191 22.2485 26.8924 21.3364 26.4074L20.5843 26.0075C20.219 25.8133 19.7811 25.8133 19.4158 26.0075L18.6638 26.4074C17.7516 26.8924 16.6799 26.1191 16.8526 25.1005L17.0027 24.2159C17.0707 23.8151 16.9386 23.4064 16.649 23.1211L16.0019 22.484C15.2701 21.7633 15.6771 20.5164 16.6932 20.3662L17.5661 20.2372C17.972 20.1772 18.3224 19.9209 18.5024 19.5521L18.8818 18.775Z" fill="url(#paint1_linear_0_173)" />
	</g>
	<defs>
		<filter id="filter0_b_0_173" x="-77.7777" y="-77.7778" width="195.556" height="200.399" filterUnits="userSpaceOnUse" color-interpolation-filters="sRGB">
			<feFlood flood-opacity="0" result="BackgroundImageFix" />
			<feGaussianBlur in="BackgroundImageFix" stdDeviation="38.8889" />
			<feComposite in2="SourceAlpha" operator="in" result="effect1_backgroundBlur_0_173" />
			<feBlend mode="normal" in="SourceGraphic" in2="effect1_backgroundBlur_0_173" result="shape" />
		</filter>
		<filter id="filter1_di_0_173" x="6.62933" y="12.0765" width="26.7415" height="26.4793" filterUnits="userSpaceOnUse" color-interpolation-filters="sRGB">
			<feFlood flood-opacity="0" result="BackgroundImageFix" />
			<feColorMatrix in="SourceAlpha" type="matrix" values="0 0 0 0 0 0 0 0 0 0 0 0 0 0 0 0 0 0 127 0" result="hardAlpha" />
			<feOffset dy="3" />
			<feGaussianBlur stdDeviation="4.5" />
			<feComposite in2="hardAlpha" operator="out" />
			<feColorMatrix type="matrix" values="0 0 0 0 1 0 0 0 0 1 0 0 0 0 1 0 0 0 0.2 0" />
			<feBlend mode="normal" in2="BackgroundImageFix" result="effect1_dropShadow_0_173" />
			<feBlend mode="normal" in="SourceGraphic" in2="effect1_dropShadow_0_173" result="shape" />
			<feColorMatrix in="SourceAlpha" type="matrix" values="0 0 0 0 0 0 0 0 0 0 0 0 0 0 0 0 0 0 127 0" result="hardAlpha" />
			<feOffset />
			<feGaussianBlur stdDeviation="1.24444" />
			<feComposite in2="hardAlpha" operator="arithmetic" k2="-1" k3="1" />
			<feColorMatrix type="matrix" values="0 0 0 0 1 0 0 0 0 1 0 0 0 0 1 0 0 0 1 0" />
			<feBlend mode="normal" in2="shape" result="effect2_innerShadow_0_173" />
		</filter>
		<linearGradient id="paint0_linear_0_173" x1="20.0001" y1="0" x2="20.0001" y2="33.3333" gradientUnits="userSpaceOnUse">
			<stop stop-color="#6042FF" />
			<stop offset="1" stop-color="#6042FF" stop-opacity="0" />
		</linearGradient>
		<linearGradient id="paint1_linear_0_173" x1="17.7778" y1="20.2622" x2="22.4445" y2="27.5955" gradientUnits="userSpaceOnUse">
			<stop stop-color="white" />
			<stop offset="1" stop-color="#9A88F5" />
		</linearGradient>
	</defs>
</svg>
