<svg width="210" height="269" viewBox="0 0 210 269" fill="none" xmlns="http://www.w3.org/2000/svg">
	<g clip-path="url(#clip0_0_80)">
		<g clip-path="url(#clip1_0_80)">
			<g filter="url(#filter0_i_0_80)">
				<rect x="1.00006" y="1" width="208" height="266" rx="15" fill="black" />
			</g>
			<rect x="1.00006" y="1" width="208" height="266" rx="15" fill="url(#paint0_linear_0_80)" />
		</g>
		<path fill-rule="evenodd" clip-rule="evenodd" d="M244.199 186.847H244.195H220.974H220.97H197.75H197.746H174.524H174.521H151.297H128.075H128.072H104.848H104.848H81.6242H81.6205H58.3968H58.3966H35.1748H35.1722H11.9496H11.9459H-11.2758H-11.2798H-34.4991H-34.5031H-57.7247H-57.7286H-80.9504H-80.9542H-104.176H-104.18H-121.224C-121.273 186.847 -121.312 186.886 -121.312 186.935C-121.312 186.983 -121.273 187.022 -121.224 187.022H-104.974L-115.032 189.26H-121.224C-121.273 189.26 -121.312 189.299 -121.312 189.347C-121.312 189.396 -121.273 189.435 -121.224 189.435H-115.819L-121.244 190.642C-121.291 190.653 -121.321 190.699 -121.31 190.747C-121.3 190.794 -121.253 190.823 -121.206 190.813L-115.012 189.435H-91.3035L-101.297 191.936H-121.224C-121.273 191.936 -121.312 191.975 -121.312 192.023C-121.312 192.072 -121.273 192.111 -121.224 192.111H-101.997L-113.225 194.921H-121.224C-121.273 194.921 -121.312 194.96 -121.312 195.009C-121.312 195.057 -121.273 195.096 -121.224 195.096H-113.925L-121.246 196.928C-121.293 196.94 -121.322 196.988 -121.31 197.034C-121.298 197.081 -121.251 197.11 -121.204 197.098L-113.204 195.096H-86.58L-97.6854 198.272H-121.224C-121.273 198.272 -121.312 198.312 -121.312 198.36C-121.312 198.408 -121.273 198.447 -121.224 198.447H-98.2975L-110.938 202.063H-121.224C-121.273 202.063 -121.312 202.102 -121.312 202.15C-121.312 202.199 -121.273 202.238 -121.224 202.238H-111.55L-121.249 205.012C-121.295 205.025 -121.322 205.073 -121.309 205.12C-121.296 205.166 -121.247 205.193 -121.201 205.18L-110.913 202.238H-80.6404L-93.0718 206.386H-121.224C-121.273 206.386 -121.312 206.425 -121.312 206.473C-121.312 206.522 -121.273 206.561 -121.224 206.561H-93.5965L-107.974 211.358H-121.224C-121.273 211.358 -121.312 211.397 -121.312 211.446C-121.312 211.494 -121.273 211.533 -121.224 211.533H-108.499L-121.253 215.789C-121.298 215.804 -121.323 215.854 -121.308 215.9C-121.293 215.945 -121.243 215.97 -121.197 215.955L-107.946 211.533H-72.9499L-86.9531 217.14H-121.224C-121.273 217.14 -121.312 217.179 -121.312 217.227C-121.312 217.276 -121.273 217.315 -121.224 217.315H-87.3903L-103.951 223.946H-121.224C-121.273 223.946 -121.312 223.985 -121.312 224.033C-121.312 224.082 -121.273 224.121 -121.224 224.121H-104.389L-121.257 230.875C-121.302 230.893 -121.323 230.944 -121.305 230.988C-121.287 231.033 -121.237 231.055 -121.192 231.037L-103.918 224.121H-62.5556L-78.4533 232.077H-121.224C-121.273 232.077 -121.312 232.116 -121.312 232.164C-121.312 232.213 -121.273 232.252 -121.224 232.252H-78.8031L-98.2028 241.96H-121.224C-121.273 241.96 -121.312 241.999 -121.312 242.047C-121.312 242.096 -121.273 242.135 -121.224 242.135H-98.5526L-121.263 253.5C-121.307 253.522 -121.324 253.574 -121.302 253.618C-121.281 253.661 -121.228 253.678 -121.185 253.657L-98.1614 242.135H-47.7249L-65.8537 254.23H-121.224C-121.273 254.23 -121.312 254.269 -121.312 254.317C-121.312 254.365 -121.273 254.405 -121.224 254.405H-66.1161L-89.2948 269.868H-121.224C-121.273 269.868 -121.312 269.907 -121.312 269.956C-121.312 270.004 -121.273 270.043 -121.224 270.043H-89.5572L-120.196 290.484H-121.224C-121.273 290.484 -121.312 290.523 -121.312 290.571C-121.312 290.62 -121.273 290.659 -121.224 290.659H-120.458L-121.273 291.203C-121.313 291.229 -121.324 291.284 -121.297 291.324C-121.271 291.364 -121.216 291.375 -121.176 291.348L-120.143 290.659H-45.406L-73.64 318.905H-121.224C-121.273 318.905 -121.312 318.945 -121.312 318.993C-121.312 319.041 -121.273 319.08 -121.224 319.08H-73.815L-121.19 366.476C-121.224 366.511 -121.224 366.566 -121.19 366.6L-121.189 366.601C-121.174 366.617 -121.152 366.626 -121.128 366.626H330.515C330.563 366.626 330.602 366.587 330.602 366.539C330.602 366.533 330.602 366.528 330.601 366.523C330.6 366.518 330.599 366.513 330.597 366.509L330.595 366.503L330.592 366.497C330.59 366.494 330.589 366.491 330.587 366.489C330.584 366.484 330.58 366.48 330.577 366.476L283.282 319.08H331C331.048 319.08 331.087 319.041 331.087 318.993C331.087 318.945 331.048 318.905 331 318.905H283.108L254.922 290.659H329.659L330.951 291.522C330.992 291.549 331.046 291.538 331.073 291.498C331.1 291.458 331.089 291.403 331.049 291.376L329.975 290.659H331C331.048 290.659 331.087 290.62 331.087 290.571C331.087 290.523 331.048 290.484 331 290.484H329.712L299.109 270.043H331C331.048 270.043 331.087 270.004 331.087 269.956C331.087 269.907 331.048 269.868 331 269.868H298.847L275.695 254.405H331C331.048 254.405 331.087 254.365 331.087 254.317C331.087 254.269 331.048 254.23 331 254.23H275.433L257.325 242.135H307.761L330.961 253.755C331.004 253.776 331.057 253.759 331.078 253.716C331.1 253.673 331.082 253.62 331.039 253.598L308.152 242.135H331C331.048 242.135 331.087 242.096 331.087 242.047C331.087 241.999 331.048 241.96 331 241.96H307.803L288.42 232.252H331C331.048 232.252 331.087 232.213 331.087 232.164C331.087 232.116 331.048 232.077 331 232.077H288.071L272.187 224.121H313.552L330.967 231.098C331.012 231.116 331.063 231.094 331.081 231.049C331.099 231.005 331.077 230.954 331.033 230.936L314.023 224.121H331C331.048 224.121 331.087 224.082 331.087 224.033C331.087 223.985 331.048 223.946 331 223.946H313.586L297.036 217.315H331C331.048 217.315 331.087 217.276 331.087 217.227C331.087 217.179 331.048 217.14 331 217.14H296.599L282.605 211.533H317.597L330.972 215.999C331.018 216.014 331.068 215.99 331.083 215.944C331.098 215.898 331.074 215.848 331.028 215.833L318.15 211.533H331C331.048 211.533 331.087 211.494 331.087 211.446C331.087 211.397 331.048 211.358 331 211.358H317.625L303.256 206.561H331C331.048 206.561 331.087 206.522 331.087 206.473C331.087 206.425 331.048 206.386 331 206.386H302.732L290.308 202.238H320.579L330.976 205.213C331.022 205.226 331.071 205.199 331.084 205.153C331.097 205.106 331.071 205.058 331.024 205.045L321.216 202.238H331C331.048 202.238 331.087 202.199 331.087 202.15C331.087 202.102 331.048 202.063 331 202.063H320.604L307.971 198.447H331C331.048 198.447 331.087 198.408 331.087 198.36C331.087 198.312 331.048 198.272 331 198.272H307.359L296.26 195.096H322.887L330.979 197.122C331.026 197.134 331.073 197.105 331.085 197.058C331.097 197.011 331.068 196.964 331.021 196.952L323.608 195.096H331C331.048 195.096 331.087 195.057 331.087 195.009C331.087 194.96 331.048 194.921 331 194.921H322.908L311.684 192.111H331C331.048 192.111 331.087 192.072 331.087 192.023C331.087 191.975 331.048 191.936 331 191.936H310.985L300.995 189.435H324.704L330.981 190.832C331.028 190.842 331.075 190.813 331.085 190.765C331.096 190.718 331.066 190.671 331.019 190.661L325.51 189.435H331C331.048 189.435 331.087 189.396 331.087 189.347C331.087 189.299 331.048 189.26 331 189.26H324.723L314.668 187.022H331C331.048 187.022 331.087 186.983 331.087 186.935C331.087 186.886 331.048 186.847 331 186.847H313.873H313.87H290.65H290.646H267.425H267.421H244.199ZM298.532 269.868L275.38 254.405H218.746L234.176 269.868H298.532ZM233.929 269.868L218.498 254.405H161.805L169.513 269.868H233.929ZM169.6 270.043H234.103L254.5 290.484H179.79L169.6 270.043ZM169.317 269.868L161.609 254.405H104.877L104.864 269.868H169.317ZM104.863 270.043H169.405L179.594 290.484H104.846L104.863 270.043ZM104.688 269.868L104.702 254.405H47.9706L40.2354 269.868H104.688ZM40.1479 270.043H104.688L104.671 290.484H29.9232L40.1479 270.043ZM40.0397 269.868L47.7748 254.405H-8.91996L-24.3768 269.868H40.0397ZM-24.5518 270.043H39.9521L29.7274 290.484H-44.9835L-24.5518 270.043ZM-24.6244 269.868L-9.1675 254.405H-65.8006L-88.9794 269.868H-24.6244ZM-89.2418 270.043H-24.7994L-45.231 290.484H-119.88L-89.2418 270.043ZM234.351 270.043H298.794L329.397 290.484H254.747L234.351 270.043ZM-65.5382 254.23H-8.99251L3.09679 242.135H-47.4094L-65.5382 254.23ZM-8.74496 254.23H47.8624L53.9123 242.135H3.34433L-8.74496 254.23ZM48.0582 254.23H104.702L104.713 242.135H54.1081L48.0582 254.23ZM104.877 254.23H161.522L155.493 242.135H104.888L104.877 254.23ZM161.717 254.23H218.324L206.255 242.135H155.688L161.717 254.23ZM218.571 254.23H275.118L257.01 242.135H206.502L218.571 254.23ZM307.412 241.96L288.029 232.252H242.528L257.063 241.96H307.412ZM256.748 241.96L242.213 232.252H196.64L206.328 241.96H256.748ZM206.08 241.96L196.393 232.252H150.761L155.601 241.96H206.08ZM155.405 241.96L150.566 232.252H104.896L104.888 241.96H155.405ZM104.713 241.96L104.721 232.252H59.0519L54.1956 241.96H104.713ZM53.9999 241.96L58.8561 232.252H13.2233L3.51932 241.96H53.9999ZM3.27177 241.96L12.9758 232.252H-32.5952L-47.147 241.96H3.27177ZM-47.4625 241.96L-32.9106 232.252H-78.4119L-97.8116 241.96H-47.4625ZM-73.3925 318.905L-45.1584 290.659H29.6398L15.5105 318.905H-73.3925ZM15.7063 318.905L29.8356 290.659H104.67L104.646 318.905H15.7063ZM104.821 318.905L104.846 290.659H179.681L193.762 318.905H104.821ZM193.958 318.905L179.877 290.659H254.675L282.86 318.905H193.958ZM287.68 232.077L271.796 224.121H230.355L242.266 232.077H287.68ZM241.951 232.077L230.039 224.121H188.527L196.466 232.077H241.951ZM196.218 232.077L188.28 224.121H146.708L150.674 232.077H196.218ZM150.479 232.077L146.513 224.121H104.903L104.896 232.077H150.479ZM104.721 232.077L104.728 224.121H63.119L59.1394 232.077H104.721ZM58.9437 232.077L62.9233 224.121H21.3506L13.3983 232.077H58.9437ZM13.1507 232.077L21.1031 224.121H-20.4077L-32.3327 232.077H13.1507ZM-32.6482 232.077L-20.7231 224.121H-62.1644L-78.0621 232.077H-32.6482ZM-62.2057 223.946H-103.48L-86.9193 217.315H-48.9555L-62.2057 223.946ZM-20.4607 223.946H-61.8145L-48.5643 217.315H-10.5216L-20.4607 223.946ZM21.278 223.946H-20.1453L-10.2062 217.315H27.906L21.278 223.946ZM21.5256 223.946H63.0109L66.3277 217.315H28.1535L21.5256 223.946ZM63.2066 223.946H104.728L104.734 217.315H66.5235L63.2066 223.946ZM104.903 223.946H146.425L143.12 217.315H104.909L104.903 223.946ZM146.621 223.946H188.105L181.488 217.315H143.316L146.621 223.946ZM229.777 223.946H188.352L181.736 217.315H219.85L229.777 223.946ZM271.446 223.946H230.093L220.165 217.315H258.208L271.446 223.946ZM313.115 223.946H271.837L258.599 217.315H296.565L313.115 223.946ZM267.411 187.022H244.736L251.438 189.26H275.23L267.411 187.022ZM268.047 187.022L275.866 189.26H299.575L290.638 187.022H268.047ZM291.358 187.022L300.296 189.26H323.917L313.862 187.022H291.358ZM-104.168 187.022L-114.226 189.26H-90.604L-81.6627 187.022H-104.168ZM-80.9416 187.022L-89.8828 189.26H-66.1746L-58.3511 187.022H-80.9416ZM-57.7144 187.022L-65.5379 189.26H-41.7461L-35.04 187.022H-57.7144ZM-34.4869 187.022L-41.193 189.26H-17.3205L-11.7319 187.022H-34.4869ZM-11.2609 187.022L-16.8495 189.26H7.10595L11.5773 187.022H-11.2609ZM11.9685 187.022L7.49714 189.26H31.5307L34.8847 187.022H11.9685ZM35.2001 187.022L31.8461 189.26H55.9488L58.1854 187.022H35.2001ZM58.433 187.022L56.1963 189.26H80.3613L81.4806 187.022H58.433ZM81.6764 187.022L80.5571 189.26H104.758L104.76 187.022H81.6764ZM104.935 187.022L104.933 189.26H129.135L128.019 187.022H104.935ZM128.215 187.022L129.33 189.26H153.493L151.261 187.022H128.215ZM151.508 187.022L153.741 189.26H177.846L174.496 187.022H151.508ZM174.811 187.022L178.161 189.26H202.195L197.727 187.022H174.811ZM198.118 187.022L202.586 189.26H226.54L220.955 187.022H198.118ZM221.426 187.022L227.011 189.26H250.885L244.183 187.022H221.426ZM289.755 202.238L302.179 206.386H269.756L259.403 202.238H289.755ZM258.932 202.238L269.286 206.386H236.778L228.496 202.238H258.932ZM269.723 206.561H237.128L246.706 211.358H281.697L269.723 206.561ZM228.105 202.238L236.387 206.386H203.802L197.592 202.238H228.105ZM236.737 206.561H204.064L211.247 211.358H246.315L236.737 206.561ZM197.276 202.238L203.487 206.386H170.83L166.691 202.238H197.276ZM203.749 206.561H171.004L175.791 211.358H210.931L203.749 206.561ZM166.443 202.238L170.582 206.386H137.867L135.8 202.238H166.443ZM170.757 206.561H137.955L140.346 211.358H175.544L170.757 206.561ZM135.604 202.238L137.672 206.386H104.919L104.922 202.238H135.604ZM137.759 206.561H104.918L104.914 211.358H140.151L137.759 206.561ZM104.747 202.238L104.743 206.386H71.9905L74.0653 202.238H104.747ZM104.743 206.561H71.9029L69.5032 211.358H104.739L104.743 206.561ZM73.8696 202.238L71.7947 206.386H39.078L43.2242 202.238H73.8696ZM71.7071 206.561H38.903L34.1077 211.358H69.3074L71.7071 206.561ZM42.9766 202.238L38.8304 206.386H6.17587L12.3934 202.238H42.9766ZM38.6554 206.561H5.91345L-1.27738 211.358H33.8602L38.6554 206.561ZM12.0779 202.238L5.86041 206.386H-26.7248L-18.4361 202.238H12.0779ZM5.59799 206.561H-27.0747L-36.661 211.358H-1.59284L5.59799 206.561ZM-18.8272 202.238L-27.116 206.386H-59.6227L-49.2627 202.238H-18.8272ZM-27.4659 206.561H-60.0599L-72.0417 211.358H-37.0522L-27.4659 206.561ZM-49.7337 202.238L-60.0937 206.386H-92.5187L-80.0872 202.238H-49.7337ZM-60.5309 206.561H-93.0433L-107.421 211.358H-72.5127L-60.5309 206.561ZM302.704 206.561H270.193L282.168 211.358H317.072L302.704 206.561ZM-86.4821 217.14H-48.6057L-37.4021 211.533H-72.4789L-86.4821 217.14ZM-48.2145 217.14H-10.2592L-1.85526 211.533H-37.0109L-48.2145 217.14ZM-9.94375 217.14H28.081L33.6852 211.533H-1.5398L-9.94375 217.14ZM66.4153 217.14H28.3285L33.9327 211.533H69.2198L66.4153 217.14ZM104.734 217.14H66.611L69.4156 211.533H104.739L104.734 217.14ZM143.033 217.14H104.909L104.914 211.533H140.238L143.033 217.14ZM181.314 217.14H143.228L140.433 211.533H175.719L181.314 217.14ZM181.561 217.14H219.588L211.193 211.533H175.966L181.561 217.14ZM219.903 217.14H257.858L246.664 211.533H211.509L219.903 217.14ZM258.249 217.14H296.128L282.134 211.533H247.055L258.249 217.14ZM193.849 319.08H104.821L104.78 366.451H217.463L193.849 319.08ZM104.646 319.08H15.6187L-8.07684 366.451H104.605L104.646 319.08ZM15.423 319.08H-73.5675L-120.917 366.451H-8.2726L15.423 319.08ZM283.035 319.08H194.045L217.659 366.451H330.304L283.035 319.08ZM-101.275 192.111L-112.504 194.921H-85.9679L-76.143 192.111H-101.275ZM-75.5309 191.936H-100.576L-90.5824 189.435H-66.7867L-75.5309 191.936ZM-75.5063 192.111L-85.3312 194.921H-58.7122L-50.2907 192.111H-75.5063ZM-49.766 191.936H-74.8942L-66.1501 189.435H-42.2708L-49.766 191.936ZM-49.7375 192.111L-58.1591 194.921H-31.4595L-24.4413 192.111H-49.7375ZM-24.004 191.936H-49.2129L-41.7176 189.435H-17.7577L-24.004 191.936ZM-23.9703 192.111L-30.9885 194.921H-4.20641L1.40876 192.111H-23.9703ZM1.7586 191.936H-23.533L-17.2867 189.435H6.75611L1.7586 191.936ZM1.79995 192.111L-3.81522 194.921H23.0451L27.2571 192.111H1.79995ZM27.5196 191.936H2.14979L7.1473 189.435H31.2682L27.5196 191.936ZM27.5726 192.111L23.3606 194.921H50.2902L53.099 192.111H27.5726ZM53.274 191.936H27.835L31.5837 189.435H55.7738L53.274 191.936ZM53.3465 192.111L50.5377 194.921H77.5295L78.9352 192.111H53.3465ZM79.0227 191.936H53.5215L56.0213 189.435H80.2737L79.0227 191.936ZM79.1309 192.111L77.7253 194.921H104.753L104.756 192.111H79.1309ZM104.756 191.936H79.2185L80.4695 189.435H104.758L104.756 191.936ZM104.931 192.111L104.928 194.921H131.957L130.556 192.111H104.931ZM130.469 191.936H104.931L104.933 189.435H129.222L130.469 191.936ZM130.752 192.111L132.152 194.921H159.142L156.338 192.111H130.752ZM156.164 191.936H130.664L129.418 189.435H153.668L156.164 191.936ZM156.586 192.111L159.39 194.921H186.322L182.115 192.111H156.586ZM181.853 191.936H156.411L153.915 189.435H178.108L181.853 191.936ZM182.43 192.111L186.637 194.921H213.497L207.887 192.111H182.43ZM207.538 191.936H182.168L178.423 189.435H202.544L207.538 191.936ZM208.278 192.111L213.888 194.921H240.67L233.656 192.111H208.278ZM233.219 191.936H207.929L202.935 189.435H226.977L233.219 191.936ZM234.127 192.111L241.141 194.921H267.841L259.424 192.111H234.127ZM258.9 191.936H233.69L227.448 189.435H251.409L258.9 191.936ZM259.977 192.111L268.394 194.921H295.012L285.192 192.111H259.977ZM284.581 191.936H259.453L251.962 189.435H275.841L284.581 191.936ZM285.829 192.111L295.648 194.921H322.187L310.963 192.111H285.829ZM310.264 191.936H285.217L276.478 189.435H300.275L310.264 191.936ZM-110.301 202.063H-80.1157L-69.2808 198.447H-97.6609L-110.301 202.063ZM-49.2965 202.063H-79.5626L-68.7277 198.447H-40.267L-49.2965 202.063ZM-18.4774 202.063H-48.8255L-39.796 198.447H-11.2531L-18.4774 202.063ZM12.3403 202.063H-18.0862L-10.8619 198.447H17.7593L12.3403 202.063ZM43.1516 202.063H12.6558L18.0748 198.447H46.7653L43.1516 202.063ZM73.9571 202.063H43.3992L47.0129 198.447H75.7656L73.9571 202.063ZM104.747 202.063H74.1529L75.9613 198.447H104.75L104.747 202.063ZM135.517 202.063H104.922L104.925 198.447H133.715L135.517 202.063ZM166.269 202.063H135.712L133.91 198.447H162.661L166.269 202.063ZM197.014 202.063H166.516L162.909 198.447H191.602L197.014 202.063ZM227.756 202.063H197.329L191.917 198.447H220.538L227.756 202.063ZM258.495 202.063H228.147L220.929 198.447H249.472L258.495 202.063ZM289.231 202.063H258.966L249.942 198.447H278.403L289.231 202.063ZM289.784 202.063H319.968L307.334 198.447H278.956L289.784 202.063ZM295.623 195.096L306.723 198.272H278.431L268.918 195.096H295.623ZM268.365 195.096L277.878 198.272H249.505L241.578 195.096H268.365ZM241.107 195.096L249.035 198.272H220.579L214.238 195.096H241.107ZM213.847 195.096L220.188 198.272H191.655L186.899 195.096H213.847ZM186.584 195.096L191.339 198.272H162.734L159.564 195.096H186.584ZM159.317 195.096L162.486 198.272H133.823L132.24 195.096H159.317ZM132.044 195.096L133.627 198.272H104.926L104.928 195.096H132.044ZM104.753 195.096L104.75 198.272H76.0489L77.6377 195.096H104.753ZM77.442 195.096L75.8531 198.272H47.1878L50.3627 195.096H77.442ZM50.1152 195.096L46.9403 198.272H18.3372L23.0982 195.096H50.1152ZM22.7827 195.096L18.0218 198.272H-10.5121L-4.16505 195.096H22.7827ZM-4.55624 195.096L-10.9033 198.272H-39.3588L-31.4258 195.096H-4.55624ZM-31.8968 195.096L-39.8298 198.272H-68.203L-58.6838 195.096H-31.8968ZM-59.2369 195.096L-68.7561 198.272H-97.0488L-85.9433 195.096H-59.2369Z" fill="url(#paint1_linear_0_80)" fill-opacity="0.7" />
		<path fill-rule="evenodd" clip-rule="evenodd" d="M244.199 186.847H244.195H220.974H220.97H197.75H197.746H174.524H174.521H151.297H128.075H128.072H104.848H104.848H81.6242H81.6205H58.3968H58.3966H35.1748H35.1722H11.9496H11.9459H-11.2758H-11.2798H-34.4991H-34.5031H-57.7247H-57.7286H-80.9504H-80.9542H-104.176H-104.18H-121.224C-121.273 186.847 -121.312 186.886 -121.312 186.935C-121.312 186.983 -121.273 187.022 -121.224 187.022H-104.974L-115.032 189.26H-121.224C-121.273 189.26 -121.312 189.299 -121.312 189.347C-121.312 189.396 -121.273 189.435 -121.224 189.435H-115.819L-121.244 190.642C-121.291 190.653 -121.321 190.699 -121.31 190.747C-121.3 190.794 -121.253 190.823 -121.206 190.813L-115.012 189.435H-91.3035L-101.297 191.936H-121.224C-121.273 191.936 -121.312 191.975 -121.312 192.023C-121.312 192.072 -121.273 192.111 -121.224 192.111H-101.997L-113.225 194.921H-121.224C-121.273 194.921 -121.312 194.96 -121.312 195.009C-121.312 195.057 -121.273 195.096 -121.224 195.096H-113.925L-121.246 196.928C-121.293 196.94 -121.322 196.988 -121.31 197.034C-121.298 197.081 -121.251 197.11 -121.204 197.098L-113.204 195.096H-86.58L-97.6854 198.272H-121.224C-121.273 198.272 -121.312 198.312 -121.312 198.36C-121.312 198.408 -121.273 198.447 -121.224 198.447H-98.2975L-110.938 202.063H-121.224C-121.273 202.063 -121.312 202.102 -121.312 202.15C-121.312 202.199 -121.273 202.238 -121.224 202.238H-111.55L-121.249 205.012C-121.295 205.025 -121.322 205.073 -121.309 205.12C-121.296 205.166 -121.247 205.193 -121.201 205.18L-110.913 202.238H-80.6404L-93.0718 206.386H-121.224C-121.273 206.386 -121.312 206.425 -121.312 206.473C-121.312 206.522 -121.273 206.561 -121.224 206.561H-93.5965L-107.974 211.358H-121.224C-121.273 211.358 -121.312 211.397 -121.312 211.446C-121.312 211.494 -121.273 211.533 -121.224 211.533H-108.499L-121.253 215.789C-121.298 215.804 -121.323 215.854 -121.308 215.9C-121.293 215.945 -121.243 215.97 -121.197 215.955L-107.946 211.533H-72.9499L-86.9531 217.14H-121.224C-121.273 217.14 -121.312 217.179 -121.312 217.227C-121.312 217.276 -121.273 217.315 -121.224 217.315H-87.3903L-103.951 223.946H-121.224C-121.273 223.946 -121.312 223.985 -121.312 224.033C-121.312 224.082 -121.273 224.121 -121.224 224.121H-104.389L-121.257 230.875C-121.302 230.893 -121.323 230.944 -121.305 230.988C-121.287 231.033 -121.237 231.055 -121.192 231.037L-103.918 224.121H-62.5556L-78.4533 232.077H-121.224C-121.273 232.077 -121.312 232.116 -121.312 232.164C-121.312 232.213 -121.273 232.252 -121.224 232.252H-78.8031L-98.2028 241.96H-121.224C-121.273 241.96 -121.312 241.999 -121.312 242.047C-121.312 242.096 -121.273 242.135 -121.224 242.135H-98.5526L-121.263 253.5C-121.307 253.522 -121.324 253.574 -121.302 253.618C-121.281 253.661 -121.228 253.678 -121.185 253.657L-98.1614 242.135H-47.7249L-65.8537 254.23H-121.224C-121.273 254.23 -121.312 254.269 -121.312 254.317C-121.312 254.365 -121.273 254.405 -121.224 254.405H-66.1161L-89.2948 269.868H-121.224C-121.273 269.868 -121.312 269.907 -121.312 269.956C-121.312 270.004 -121.273 270.043 -121.224 270.043H-89.5572L-120.196 290.484H-121.224C-121.273 290.484 -121.312 290.523 -121.312 290.571C-121.312 290.62 -121.273 290.659 -121.224 290.659H-120.458L-121.273 291.203C-121.313 291.229 -121.324 291.284 -121.297 291.324C-121.271 291.364 -121.216 291.375 -121.176 291.348L-120.143 290.659H-45.406L-73.64 318.905H-121.224C-121.273 318.905 -121.312 318.945 -121.312 318.993C-121.312 319.041 -121.273 319.08 -121.224 319.08H-73.815L-121.19 366.476C-121.224 366.511 -121.224 366.566 -121.19 366.6L-121.189 366.601C-121.174 366.617 -121.152 366.626 -121.128 366.626H330.515C330.563 366.626 330.602 366.587 330.602 366.539C330.602 366.533 330.602 366.528 330.601 366.523C330.6 366.518 330.599 366.513 330.597 366.509L330.595 366.503L330.592 366.497C330.59 366.494 330.589 366.491 330.587 366.489C330.584 366.484 330.58 366.48 330.577 366.476L283.282 319.08H331C331.048 319.08 331.087 319.041 331.087 318.993C331.087 318.945 331.048 318.905 331 318.905H283.108L254.922 290.659H329.659L330.951 291.522C330.992 291.549 331.046 291.538 331.073 291.498C331.1 291.458 331.089 291.403 331.049 291.376L329.975 290.659H331C331.048 290.659 331.087 290.62 331.087 290.571C331.087 290.523 331.048 290.484 331 290.484H329.712L299.109 270.043H331C331.048 270.043 331.087 270.004 331.087 269.956C331.087 269.907 331.048 269.868 331 269.868H298.847L275.695 254.405H331C331.048 254.405 331.087 254.365 331.087 254.317C331.087 254.269 331.048 254.23 331 254.23H275.433L257.325 242.135H307.761L330.961 253.755C331.004 253.776 331.057 253.759 331.078 253.716C331.1 253.673 331.082 253.62 331.039 253.598L308.152 242.135H331C331.048 242.135 331.087 242.096 331.087 242.047C331.087 241.999 331.048 241.96 331 241.96H307.803L288.42 232.252H331C331.048 232.252 331.087 232.213 331.087 232.164C331.087 232.116 331.048 232.077 331 232.077H288.071L272.187 224.121H313.552L330.967 231.098C331.012 231.116 331.063 231.094 331.081 231.049C331.099 231.005 331.077 230.954 331.033 230.936L314.023 224.121H331C331.048 224.121 331.087 224.082 331.087 224.033C331.087 223.985 331.048 223.946 331 223.946H313.586L297.036 217.315H331C331.048 217.315 331.087 217.276 331.087 217.227C331.087 217.179 331.048 217.14 331 217.14H296.599L282.605 211.533H317.597L330.972 215.999C331.018 216.014 331.068 215.99 331.083 215.944C331.098 215.898 331.074 215.848 331.028 215.833L318.15 211.533H331C331.048 211.533 331.087 211.494 331.087 211.446C331.087 211.397 331.048 211.358 331 211.358H317.625L303.256 206.561H331C331.048 206.561 331.087 206.522 331.087 206.473C331.087 206.425 331.048 206.386 331 206.386H302.732L290.308 202.238H320.579L330.976 205.213C331.022 205.226 331.071 205.199 331.084 205.153C331.097 205.106 331.071 205.058 331.024 205.045L321.216 202.238H331C331.048 202.238 331.087 202.199 331.087 202.15C331.087 202.102 331.048 202.063 331 202.063H320.604L307.971 198.447H331C331.048 198.447 331.087 198.408 331.087 198.36C331.087 198.312 331.048 198.272 331 198.272H307.359L296.26 195.096H322.887L330.979 197.122C331.026 197.134 331.073 197.105 331.085 197.058C331.097 197.011 331.068 196.964 331.021 196.952L323.608 195.096H331C331.048 195.096 331.087 195.057 331.087 195.009C331.087 194.96 331.048 194.921 331 194.921H322.908L311.684 192.111H331C331.048 192.111 331.087 192.072 331.087 192.023C331.087 191.975 331.048 191.936 331 191.936H310.985L300.995 189.435H324.704L330.981 190.832C331.028 190.842 331.075 190.813 331.085 190.765C331.096 190.718 331.066 190.671 331.019 190.661L325.51 189.435H331C331.048 189.435 331.087 189.396 331.087 189.347C331.087 189.299 331.048 189.26 331 189.26H324.723L314.668 187.022H331C331.048 187.022 331.087 186.983 331.087 186.935C331.087 186.886 331.048 186.847 331 186.847H313.873H313.87H290.65H290.646H267.425H267.421H244.199ZM298.532 269.868L275.38 254.405H218.746L234.176 269.868H298.532ZM233.929 269.868L218.498 254.405H161.805L169.513 269.868H233.929ZM169.6 270.043H234.103L254.5 290.484H179.79L169.6 270.043ZM169.317 269.868L161.609 254.405H104.877L104.864 269.868H169.317ZM104.863 270.043H169.405L179.594 290.484H104.846L104.863 270.043ZM104.688 269.868L104.702 254.405H47.9706L40.2354 269.868H104.688ZM40.1479 270.043H104.688L104.671 290.484H29.9232L40.1479 270.043ZM40.0397 269.868L47.7748 254.405H-8.91996L-24.3768 269.868H40.0397ZM-24.5518 270.043H39.9521L29.7274 290.484H-44.9835L-24.5518 270.043ZM-24.6244 269.868L-9.1675 254.405H-65.8006L-88.9794 269.868H-24.6244ZM-89.2418 270.043H-24.7994L-45.231 290.484H-119.88L-89.2418 270.043ZM234.351 270.043H298.794L329.397 290.484H254.747L234.351 270.043ZM-65.5382 254.23H-8.99251L3.09679 242.135H-47.4094L-65.5382 254.23ZM-8.74496 254.23H47.8624L53.9123 242.135H3.34433L-8.74496 254.23ZM48.0582 254.23H104.702L104.713 242.135H54.1081L48.0582 254.23ZM104.877 254.23H161.522L155.493 242.135H104.888L104.877 254.23ZM161.717 254.23H218.324L206.255 242.135H155.688L161.717 254.23ZM218.571 254.23H275.118L257.01 242.135H206.502L218.571 254.23ZM307.412 241.96L288.029 232.252H242.528L257.063 241.96H307.412ZM256.748 241.96L242.213 232.252H196.64L206.328 241.96H256.748ZM206.08 241.96L196.393 232.252H150.761L155.601 241.96H206.08ZM155.405 241.96L150.566 232.252H104.896L104.888 241.96H155.405ZM104.713 241.96L104.721 232.252H59.0519L54.1956 241.96H104.713ZM53.9999 241.96L58.8561 232.252H13.2233L3.51932 241.96H53.9999ZM3.27177 241.96L12.9758 232.252H-32.5952L-47.147 241.96H3.27177ZM-47.4625 241.96L-32.9106 232.252H-78.4119L-97.8116 241.96H-47.4625ZM-73.3925 318.905L-45.1584 290.659H29.6398L15.5105 318.905H-73.3925ZM15.7063 318.905L29.8356 290.659H104.67L104.646 318.905H15.7063ZM104.821 318.905L104.846 290.659H179.681L193.762 318.905H104.821ZM193.958 318.905L179.877 290.659H254.675L282.86 318.905H193.958ZM287.68 232.077L271.796 224.121H230.355L242.266 232.077H287.68ZM241.951 232.077L230.039 224.121H188.527L196.466 232.077H241.951ZM196.218 232.077L188.28 224.121H146.708L150.674 232.077H196.218ZM150.479 232.077L146.513 224.121H104.903L104.896 232.077H150.479ZM104.721 232.077L104.728 224.121H63.119L59.1394 232.077H104.721ZM58.9437 232.077L62.9233 224.121H21.3506L13.3983 232.077H58.9437ZM13.1507 232.077L21.1031 224.121H-20.4077L-32.3327 232.077H13.1507ZM-32.6482 232.077L-20.7231 224.121H-62.1644L-78.0621 232.077H-32.6482ZM-62.2057 223.946H-103.48L-86.9193 217.315H-48.9555L-62.2057 223.946ZM-20.4607 223.946H-61.8145L-48.5643 217.315H-10.5216L-20.4607 223.946ZM21.278 223.946H-20.1453L-10.2062 217.315H27.906L21.278 223.946ZM21.5256 223.946H63.0109L66.3277 217.315H28.1535L21.5256 223.946ZM63.2066 223.946H104.728L104.734 217.315H66.5235L63.2066 223.946ZM104.903 223.946H146.425L143.12 217.315H104.909L104.903 223.946ZM146.621 223.946H188.105L181.488 217.315H143.316L146.621 223.946ZM229.777 223.946H188.352L181.736 217.315H219.85L229.777 223.946ZM271.446 223.946H230.093L220.165 217.315H258.208L271.446 223.946ZM313.115 223.946H271.837L258.599 217.315H296.565L313.115 223.946ZM267.411 187.022H244.736L251.438 189.26H275.23L267.411 187.022ZM268.047 187.022L275.866 189.26H299.575L290.638 187.022H268.047ZM291.358 187.022L300.296 189.26H323.917L313.862 187.022H291.358ZM-104.168 187.022L-114.226 189.26H-90.604L-81.6627 187.022H-104.168ZM-80.9416 187.022L-89.8828 189.26H-66.1746L-58.3511 187.022H-80.9416ZM-57.7144 187.022L-65.5379 189.26H-41.7461L-35.04 187.022H-57.7144ZM-34.4869 187.022L-41.193 189.26H-17.3205L-11.7319 187.022H-34.4869ZM-11.2609 187.022L-16.8495 189.26H7.10595L11.5773 187.022H-11.2609ZM11.9685 187.022L7.49714 189.26H31.5307L34.8847 187.022H11.9685ZM35.2001 187.022L31.8461 189.26H55.9488L58.1854 187.022H35.2001ZM58.433 187.022L56.1963 189.26H80.3613L81.4806 187.022H58.433ZM81.6764 187.022L80.5571 189.26H104.758L104.76 187.022H81.6764ZM104.935 187.022L104.933 189.26H129.135L128.019 187.022H104.935ZM128.215 187.022L129.33 189.26H153.493L151.261 187.022H128.215ZM151.508 187.022L153.741 189.26H177.846L174.496 187.022H151.508ZM174.811 187.022L178.161 189.26H202.195L197.727 187.022H174.811ZM198.118 187.022L202.586 189.26H226.54L220.955 187.022H198.118ZM221.426 187.022L227.011 189.26H250.885L244.183 187.022H221.426ZM289.755 202.238L302.179 206.386H269.756L259.403 202.238H289.755ZM258.932 202.238L269.286 206.386H236.778L228.496 202.238H258.932ZM269.723 206.561H237.128L246.706 211.358H281.697L269.723 206.561ZM228.105 202.238L236.387 206.386H203.802L197.592 202.238H228.105ZM236.737 206.561H204.064L211.247 211.358H246.315L236.737 206.561ZM197.276 202.238L203.487 206.386H170.83L166.691 202.238H197.276ZM203.749 206.561H171.004L175.791 211.358H210.931L203.749 206.561ZM166.443 202.238L170.582 206.386H137.867L135.8 202.238H166.443ZM170.757 206.561H137.955L140.346 211.358H175.544L170.757 206.561ZM135.604 202.238L137.672 206.386H104.919L104.922 202.238H135.604ZM137.759 206.561H104.918L104.914 211.358H140.151L137.759 206.561ZM104.747 202.238L104.743 206.386H71.9905L74.0653 202.238H104.747ZM104.743 206.561H71.9029L69.5032 211.358H104.739L104.743 206.561ZM73.8696 202.238L71.7947 206.386H39.078L43.2242 202.238H73.8696ZM71.7071 206.561H38.903L34.1077 211.358H69.3074L71.7071 206.561ZM42.9766 202.238L38.8304 206.386H6.17587L12.3934 202.238H42.9766ZM38.6554 206.561H5.91345L-1.27738 211.358H33.8602L38.6554 206.561ZM12.0779 202.238L5.86041 206.386H-26.7248L-18.4361 202.238H12.0779ZM5.59799 206.561H-27.0747L-36.661 211.358H-1.59284L5.59799 206.561ZM-18.8272 202.238L-27.116 206.386H-59.6227L-49.2627 202.238H-18.8272ZM-27.4659 206.561H-60.0599L-72.0417 211.358H-37.0522L-27.4659 206.561ZM-49.7337 202.238L-60.0937 206.386H-92.5187L-80.0872 202.238H-49.7337ZM-60.5309 206.561H-93.0433L-107.421 211.358H-72.5127L-60.5309 206.561ZM302.704 206.561H270.193L282.168 211.358H317.072L302.704 206.561ZM-86.4821 217.14H-48.6057L-37.4021 211.533H-72.4789L-86.4821 217.14ZM-48.2145 217.14H-10.2592L-1.85526 211.533H-37.0109L-48.2145 217.14ZM-9.94375 217.14H28.081L33.6852 211.533H-1.5398L-9.94375 217.14ZM66.4153 217.14H28.3285L33.9327 211.533H69.2198L66.4153 217.14ZM104.734 217.14H66.611L69.4156 211.533H104.739L104.734 217.14ZM143.033 217.14H104.909L104.914 211.533H140.238L143.033 217.14ZM181.314 217.14H143.228L140.433 211.533H175.719L181.314 217.14ZM181.561 217.14H219.588L211.193 211.533H175.966L181.561 217.14ZM219.903 217.14H257.858L246.664 211.533H211.509L219.903 217.14ZM258.249 217.14H296.128L282.134 211.533H247.055L258.249 217.14ZM193.849 319.08H104.821L104.78 366.451H217.463L193.849 319.08ZM104.646 319.08H15.6187L-8.07684 366.451H104.605L104.646 319.08ZM15.423 319.08H-73.5675L-120.917 366.451H-8.2726L15.423 319.08ZM283.035 319.08H194.045L217.659 366.451H330.304L283.035 319.08ZM-101.275 192.111L-112.504 194.921H-85.9679L-76.143 192.111H-101.275ZM-75.5309 191.936H-100.576L-90.5824 189.435H-66.7867L-75.5309 191.936ZM-75.5063 192.111L-85.3312 194.921H-58.7122L-50.2907 192.111H-75.5063ZM-49.766 191.936H-74.8942L-66.1501 189.435H-42.2708L-49.766 191.936ZM-49.7375 192.111L-58.1591 194.921H-31.4595L-24.4413 192.111H-49.7375ZM-24.004 191.936H-49.2129L-41.7176 189.435H-17.7577L-24.004 191.936ZM-23.9703 192.111L-30.9885 194.921H-4.20641L1.40876 192.111H-23.9703ZM1.7586 191.936H-23.533L-17.2867 189.435H6.75611L1.7586 191.936ZM1.79995 192.111L-3.81522 194.921H23.0451L27.2571 192.111H1.79995ZM27.5196 191.936H2.14979L7.1473 189.435H31.2682L27.5196 191.936ZM27.5726 192.111L23.3606 194.921H50.2902L53.099 192.111H27.5726ZM53.274 191.936H27.835L31.5837 189.435H55.7738L53.274 191.936ZM53.3465 192.111L50.5377 194.921H77.5295L78.9352 192.111H53.3465ZM79.0227 191.936H53.5215L56.0213 189.435H80.2737L79.0227 191.936ZM79.1309 192.111L77.7253 194.921H104.753L104.756 192.111H79.1309ZM104.756 191.936H79.2185L80.4695 189.435H104.758L104.756 191.936ZM104.931 192.111L104.928 194.921H131.957L130.556 192.111H104.931ZM130.469 191.936H104.931L104.933 189.435H129.222L130.469 191.936ZM130.752 192.111L132.152 194.921H159.142L156.338 192.111H130.752ZM156.164 191.936H130.664L129.418 189.435H153.668L156.164 191.936ZM156.586 192.111L159.39 194.921H186.322L182.115 192.111H156.586ZM181.853 191.936H156.411L153.915 189.435H178.108L181.853 191.936ZM182.43 192.111L186.637 194.921H213.497L207.887 192.111H182.43ZM207.538 191.936H182.168L178.423 189.435H202.544L207.538 191.936ZM208.278 192.111L213.888 194.921H240.67L233.656 192.111H208.278ZM233.219 191.936H207.929L202.935 189.435H226.977L233.219 191.936ZM234.127 192.111L241.141 194.921H267.841L259.424 192.111H234.127ZM258.9 191.936H233.69L227.448 189.435H251.409L258.9 191.936ZM259.977 192.111L268.394 194.921H295.012L285.192 192.111H259.977ZM284.581 191.936H259.453L251.962 189.435H275.841L284.581 191.936ZM285.829 192.111L295.648 194.921H322.187L310.963 192.111H285.829ZM310.264 191.936H285.217L276.478 189.435H300.275L310.264 191.936ZM-110.301 202.063H-80.1157L-69.2808 198.447H-97.6609L-110.301 202.063ZM-49.2965 202.063H-79.5626L-68.7277 198.447H-40.267L-49.2965 202.063ZM-18.4774 202.063H-48.8255L-39.796 198.447H-11.2531L-18.4774 202.063ZM12.3403 202.063H-18.0862L-10.8619 198.447H17.7593L12.3403 202.063ZM43.1516 202.063H12.6558L18.0748 198.447H46.7653L43.1516 202.063ZM73.9571 202.063H43.3992L47.0129 198.447H75.7656L73.9571 202.063ZM104.747 202.063H74.1529L75.9613 198.447H104.75L104.747 202.063ZM135.517 202.063H104.922L104.925 198.447H133.715L135.517 202.063ZM166.269 202.063H135.712L133.91 198.447H162.661L166.269 202.063ZM197.014 202.063H166.516L162.909 198.447H191.602L197.014 202.063ZM227.756 202.063H197.329L191.917 198.447H220.538L227.756 202.063ZM258.495 202.063H228.147L220.929 198.447H249.472L258.495 202.063ZM289.231 202.063H258.966L249.942 198.447H278.403L289.231 202.063ZM289.784 202.063H319.968L307.334 198.447H278.956L289.784 202.063ZM295.623 195.096L306.723 198.272H278.431L268.918 195.096H295.623ZM268.365 195.096L277.878 198.272H249.505L241.578 195.096H268.365ZM241.107 195.096L249.035 198.272H220.579L214.238 195.096H241.107ZM213.847 195.096L220.188 198.272H191.655L186.899 195.096H213.847ZM186.584 195.096L191.339 198.272H162.734L159.564 195.096H186.584ZM159.317 195.096L162.486 198.272H133.823L132.24 195.096H159.317ZM132.044 195.096L133.627 198.272H104.926L104.928 195.096H132.044ZM104.753 195.096L104.75 198.272H76.0489L77.6377 195.096H104.753ZM77.442 195.096L75.8531 198.272H47.1878L50.3627 195.096H77.442ZM50.1152 195.096L46.9403 198.272H18.3372L23.0982 195.096H50.1152ZM22.7827 195.096L18.0218 198.272H-10.5121L-4.16505 195.096H22.7827ZM-4.55624 195.096L-10.9033 198.272H-39.3588L-31.4258 195.096H-4.55624ZM-31.8968 195.096L-39.8298 198.272H-68.203L-58.6838 195.096H-31.8968ZM-59.2369 195.096L-68.7561 198.272H-97.0488L-85.9433 195.096H-59.2369Z" fill="url(#paint2_linear_0_80)" />
		<g style="mix-blend-mode:screen" filter="url(#filter1_f_0_80)">
			<path d="M78.7639 178.927C156.442 -40.7553 323.659 -145.058 365.603 -174L-169.098 -8.47166L-90.4513 461.161C24.5581 434.721 5.36008 386.522 78.7639 178.927Z" fill="url(#paint3_radial_0_80)" fill-opacity="0.3" />
		</g>
		<circle cx="114.75" cy="38.75" r="0.750058" transform="rotate(-180 114.75 38.75)" fill="#16155E" fill-opacity="0.15" />
		<circle cx="138.75" cy="32.75" r="0.750058" transform="rotate(-180 138.75 32.75)" fill="#16155E" fill-opacity="0.6" />
		<circle cx="32.7792" cy="36.9424" r="0.750058" transform="rotate(-180 32.7792 36.9424)" fill="#16155E" fill-opacity="0.3" />
		<circle cx="20.6273" cy="110.468" r="1.12493" transform="rotate(-180 20.6273 110.468)" fill="#16155E" fill-opacity="0.3" />
		<circle cx="70.3152" cy="124.148" r="1.12493" transform="rotate(-180 70.3152 124.148)" fill="#16155E" fill-opacity="0.3" />
		<circle cx="89.1249" cy="35.1249" r="1.12493" transform="rotate(-180 89.1249 35.1249)" fill="#16155E" fill-opacity="0.15" />
		<circle cx="39.125" cy="136.125" r="1.12493" transform="rotate(-180 39.125 136.125)" fill="#16155E" fill-opacity="0.1" />
		<circle cx="64.421" cy="114.696" r="1.12493" transform="rotate(-180 64.421 114.696)" fill="#16155E" fill-opacity="0.15" />
		<circle cx="38.9878" cy="62.3405" r="1.12493" transform="rotate(-180 38.9878 62.3405)" fill="#16155E" fill-opacity="0.1" />
		<circle cx="17.6034" cy="47.4409" r="1.12493" transform="rotate(-180 17.6034 47.4409)" fill="#16155E" fill-opacity="0.3" />
		<circle cx="62.125" cy="14.1249" r="1.12493" transform="rotate(-180 62.125 14.1249)" fill="#16155E" fill-opacity="0.7" />
		<circle cx="178.375" cy="153.375" r="0.374874" transform="rotate(-180 178.375 153.375)" fill="#16155E" fill-opacity="0.15" />
		<circle cx="144.293" cy="136.352" r="0.374874" transform="rotate(-180 144.293 136.352)" fill="#16155E" fill-opacity="0.3" />
		<circle cx="181.208" cy="107.003" r="0.374874" transform="rotate(-180 181.208 107.003)" fill="#16155E" fill-opacity="0.1" />
		<circle cx="92.758" cy="73.5919" r="0.374874" transform="rotate(-180 92.758 73.5919)" fill="#16155E" fill-opacity="0.3" />
		<circle cx="175.115" cy="124.613" r="0.374874" transform="rotate(-180 175.115 124.613)" fill="#16155E" fill-opacity="0.6" />
		<circle cx="67.8302" cy="129.456" r="0.374874" transform="rotate(-180 67.8302 129.456)" fill="#16155E" fill-opacity="0.1" />
		<circle cx="56.6118" cy="27.1654" r="0.374874" transform="rotate(-180 56.6118 27.1654)" fill="#16155E" fill-opacity="0.15" />
		<circle cx="67.4145" cy="90.7245" r="0.374874" transform="rotate(-180 67.4145 90.7245)" fill="#16155E" fill-opacity="0.1" />
		<circle cx="184.375" cy="52.3748" r="0.374874" transform="rotate(-180 184.375 52.3748)" fill="#16155E" fill-opacity="0.3" />
		<circle cx="134.694" cy="163.33" r="0.374874" transform="rotate(-180 134.694 163.33)" fill="#16155E" fill-opacity="0.3" />
		<circle cx="131.227" cy="64.6171" r="0.374874" transform="rotate(-180 131.227 64.6171)" fill="#16155E" fill-opacity="0.7" />
		<circle cx="196.375" cy="79.3748" r="0.374874" transform="rotate(-180 196.375 79.3748)" fill="#16155E" fill-opacity="0.15" />
		<circle cx="22.3749" cy="82.3748" r="0.374874" transform="rotate(-180 22.3749 82.3748)" fill="#16155E" fill-opacity="0.1" />
		<circle cx="44.1753" cy="104.641" r="0.374874" transform="rotate(-180 44.1753 104.641)" fill="#16155E" fill-opacity="0.3" />
		<circle cx="164.817" cy="15.0536" r="0.374874" transform="rotate(-180 164.817 15.0536)" fill="#16155E" fill-opacity="0.1" />
		<circle cx="130.395" cy="108.655" r="0.374874" transform="rotate(-180 130.395 108.655)" fill="#16155E" fill-opacity="0.15" />
		<circle cx="50.3749" cy="37.3749" r="0.374874" transform="rotate(-180 50.3749 37.3749)" fill="#16155E" fill-opacity="0.3" />
		<circle cx="130.371" cy="57.2672" r="0.374874" transform="rotate(-180 130.371 57.2672)" fill="#16155E" fill-opacity="0.1" />
		<circle cx="141.713" cy="61.7841" r="0.374874" transform="rotate(-180 141.713 61.7841)" fill="#16155E" fill-opacity="0.3" />
		<circle cx="20.3749" cy="70.3748" r="0.374874" transform="rotate(-180 20.3749 70.3748)" fill="#16155E" fill-opacity="0.15" />
		<circle cx="118.867" cy="7.7862" r="0.374874" transform="rotate(-180 118.867 7.7862)" fill="#16155E" fill-opacity="0.1" />
		<circle cx="113.464" cy="33.6276" r="0.374874" transform="rotate(-180 113.464 33.6276)" fill="#16155E" fill-opacity="0.1" />
		<circle cx="17.3749" cy="149.375" r="0.374874" transform="rotate(-180 17.3749 149.375)" fill="#16155E" fill-opacity="0.3" />
		<circle cx="42.057" cy="10.1621" r="0.374874" transform="rotate(-180 42.057 10.1621)" fill="#16155E" fill-opacity="0.1" />
		<path d="M194.75 29.5001L194.101 28.375L195.4 28.375L194.75 29.5001Z" fill="#16155E" fill-opacity="0.6" />
		<circle cx="63.3749" cy="63.3749" r="0.374874" transform="rotate(-180 63.3749 63.3749)" fill="#16155E" fill-opacity="0.1" />
		<path d="M12.7501 26.5001L12.1005 25.375L13.3997 25.375L12.7501 26.5001Z" fill="#16155E" fill-opacity="0.1" />
		<path d="M13.5045 8.03442L13.3454 7.44348L12.7544 7.28437L13.3454 7.12525L13.5045 6.53431L13.6636 7.12525L14.2546 7.28437L13.6636 7.44348L13.5045 8.03442Z" fill="#16155E" fill-opacity="0.1" />
		<path d="M162.75 35.5001L162.591 34.9091L162 34.75L162.591 34.5909L162.75 34L162.909 34.5909L163.5 34.75L162.909 34.9091L162.75 35.5001Z" fill="#16155E" fill-opacity="0.6" />
		<path d="M105.951 67.4277L105.792 66.8367L105.201 66.6776L105.792 66.5185L105.951 65.9276L106.11 66.5185L106.701 66.6776L106.11 66.8367L105.951 67.4277Z" fill="#16155E" fill-opacity="0.1" />
		<path d="M141.75 12.5001L141.591 11.9091L141 11.75L141.591 11.5909L141.75 11L141.909 11.5909L142.5 11.75L141.909 11.9091L141.75 12.5001Z" fill="#4642FF" fill-opacity="0.8" />
		<path d="M131.374 121.075L131.215 120.484L130.624 120.324L131.215 120.165L131.374 119.574L131.533 120.165L132.124 120.324L131.533 120.484L131.374 121.075Z" fill="#16155E" fill-opacity="0.15" />
		<path d="M67.3247 47.34L67.1656 46.749L66.5747 46.5899L67.1656 46.4308L67.3247 45.8398L67.4839 46.4308L68.0748 46.5899L67.4839 46.749L67.3247 47.34Z" fill="#16155E" fill-opacity="0.3" />
		<circle cx="194.375" cy="56.3749" r="0.374874" transform="rotate(-180 194.375 56.3749)" fill="#16155E" fill-opacity="0.3" />
		<path d="M202.071 123.194C193.568 91.7445 166.849 22.3389 128 -3.68544" stroke="url(#paint4_linear_0_80)" stroke-opacity="0.15" stroke-width="2" />
		<path d="M73.1066 -6.8934C72.8611 18.0917 55.0888 80.3614 -14.0359 129.56" stroke="url(#paint5_linear_0_80)" stroke-opacity="0.15" stroke-width="2" />
	</g>
	<rect x="0.500061" y="268.5" width="268" height="209" rx="15.5" transform="rotate(-90 0.500061 268.5)" stroke="url(#paint6_linear_0_80)" />
	<defs>
		<filter id="filter0_i_0_80" x="1.00006" y="1" width="208" height="270" filterUnits="userSpaceOnUse" color-interpolation-filters="sRGB">
			<feFlood flood-opacity="0" result="BackgroundImageFix" />
			<feBlend mode="normal" in="SourceGraphic" in2="BackgroundImageFix" result="shape" />
			<feColorMatrix in="SourceAlpha" type="matrix" values="0 0 0 0 0 0 0 0 0 0 0 0 0 0 0 0 0 0 127 0" result="hardAlpha" />
			<feMorphology radius="7" operator="dilate" in="SourceAlpha" result="effect1_innerShadow_0_80" />
			<feOffset dy="4" />
			<feGaussianBlur stdDeviation="12" />
			<feComposite in2="hardAlpha" operator="arithmetic" k2="-1" k3="1" />
			<feColorMatrix type="matrix" values="0 0 0 0 0.376471 0 0 0 0 0.258824 0 0 0 0 1 0 0 0 1 0" />
			<feBlend mode="normal" in2="shape" result="effect1_innerShadow_0_80" />
		</filter>
		<filter id="filter1_f_0_80" x="-243.073" y="-247.975" width="682.651" height="783.111" filterUnits="userSpaceOnUse" color-interpolation-filters="sRGB">
			<feFlood flood-opacity="0" result="BackgroundImageFix" />
			<feBlend mode="normal" in="SourceGraphic" in2="BackgroundImageFix" result="shape" />
			<feGaussianBlur stdDeviation="36.9873" result="effect1_foregroundBlur_0_80" />
		</filter>
		<linearGradient id="paint0_linear_0_80" x1="105" y1="1" x2="105" y2="267" gradientUnits="userSpaceOnUse">
			<stop stop-opacity="0" />
			<stop offset="1" />
		</linearGradient>
		<linearGradient id="paint1_linear_0_80" x1="104.888" y1="196.5" x2="104.888" y2="337" gradientUnits="userSpaceOnUse">
			<stop offset="0.0640087" stop-color="white" stop-opacity="0" />
			<stop offset="0.258526" stop-color="white" stop-opacity="0.8" />
			<stop offset="0.486011" stop-color="white" stop-opacity="0" />
			<stop offset="1" stop-color="white" stop-opacity="0" />
		</linearGradient>
		<linearGradient id="paint2_linear_0_80" x1="-4.49999" y1="227" x2="211.5" y2="227" gradientUnits="userSpaceOnUse">
			<stop />
			<stop offset="0.52582" stop-opacity="0" />
			<stop offset="1" />
		</linearGradient>
		<radialGradient id="paint3_radial_0_80" cx="0" cy="0" r="1" gradientUnits="userSpaceOnUse" gradientTransform="translate(223.938 127.978) rotate(-150.409) scale(306.983 306.992)">
			<stop offset="0.409332" stop-color="#6041FF" />
			<stop offset="1" stop-opacity="0" />
			<stop offset="1" stop-color="#2D2E32" stop-opacity="0" />
		</radialGradient>
		<linearGradient id="paint4_linear_0_80" x1="157.346" y1="-7.06253" x2="193.08" y2="93.901" gradientUnits="userSpaceOnUse">
			<stop stop-color="#6042FF" />
			<stop offset="1" stop-color="white" stop-opacity="0" />
		</linearGradient>
		<linearGradient id="paint5_linear_0_80" x1="73.5535" y1="-9.48218" x2="20.5433" y2="126.862" gradientUnits="userSpaceOnUse">
			<stop stop-color="#6042FF" />
			<stop offset="1" stop-color="white" stop-opacity="0" />
		</linearGradient>
		<linearGradient id="paint6_linear_0_80" x1="269" y1="373.63" x2="71.0001" y2="373.63" gradientUnits="userSpaceOnUse">
			<stop stop-color="#4149FF" />
			<stop offset="1" stop-color="#415FFF" stop-opacity="0" />
		</linearGradient>
		<clipPath id="clip0_0_80">
			<rect x="6.10352e-05" y="269" width="269" height="210" rx="16" transform="rotate(-90 6.10352e-05 269)" fill="white" />
		</clipPath>
		<clipPath id="clip1_0_80">
			<rect width="208" height="266" fill="white" transform="translate(1.00006 1)" />
		</clipPath>
	</defs>
</svg>
