<svg width="112" height="126" viewBox="0 0 112 126" fill="none" xmlns="http://www.w3.org/2000/svg">
	<g id="Icon">
		<g id="Icon bg">
			<g id="Group 215">
				<mask id="mask0_0_801" style="mask-type:alpha" maskUnits="userSpaceOnUse" x="0" y="0" width="112" height="126">
					<path id="Vector" d="M56 125.563C40.4635 123.358 26.2446 115.621 15.9565 103.772C5.66839 91.9229 0.00247018 76.7589 6.16832e-05 61.0668V38.8428C-0.00549156 36.0289 0.731175 33.2632 2.13574 30.8249C3.54031 28.3866 5.56311 26.3618 8.00006 24.9548L48 2.10684C50.4171 0.726193 53.1525 0 55.936 0C58.7196 0 61.455 0.726193 63.872 2.10684L104 24.9548C106.437 26.3618 108.46 28.3866 109.864 30.8249C111.269 33.2632 112.006 36.0289 112 38.8428V61.0508C112.005 76.7466 106.342 91.9162 96.0527 103.769C85.7637 115.622 71.5406 123.361 56 125.563Z" fill="black" />
				</mask>
				<g mask="url(#mask0_0_801)">
				</g>
			</g>
			<g id="Vector_4" filter="url(#filter0_b_0_801)">
				<path d="M56 125.563C40.4635 123.358 26.2446 115.621 15.9565 103.772C5.66839 91.9229 0.00247018 76.7589 6.16832e-05 61.0668V38.8428C-0.00549156 36.0289 0.731175 33.2632 2.13574 30.8249C3.54031 28.3866 5.56311 26.3618 8.00006 24.9548L48 2.10684C50.4171 0.726193 53.1525 0 55.936 0C58.7196 0 61.455 0.726193 63.872 2.10684L104 24.9548C106.437 26.3618 108.46 28.3866 109.864 30.8249C111.269 33.2632 112.006 36.0289 112 38.8428V61.0508C112.005 76.7466 106.342 91.9162 96.0527 103.769C85.7637 115.622 71.5406 123.361 56 125.563Z" fill="black" fill-opacity="0.05" />
				<path d="M0.777841 38.8428L0.777838 38.8413C0.772555 36.1641 1.47341 33.5329 2.8097 31.2131C4.14568 28.8939 6.06955 26.9679 8.3873 25.6294C8.38785 25.629 8.3884 25.6287 8.38894 25.6284L48.3858 2.78221L48 2.10684L48.3858 2.7822C50.6853 1.46867 53.2878 0.777778 55.936 0.777778C58.5843 0.777778 61.1867 1.46867 63.4862 2.7822L63.4872 2.78274L103.611 25.6284C103.612 25.6288 103.613 25.6292 103.613 25.6296C105.931 26.9681 107.854 28.894 109.19 31.2131C110.527 33.5329 111.228 36.1641 111.222 38.8413V38.8428V61.0508V61.051C111.227 76.5594 105.632 91.5479 95.4654 103.259C85.3233 114.943 71.3126 122.581 56.0001 124.777C40.6916 122.578 26.6849 114.942 16.5438 103.262C6.37852 91.5545 0.780248 76.5715 0.777839 61.0668C0.777839 61.0668 0.777839 61.0667 0.777839 61.0667L0.777841 38.8428Z" stroke="url(#paint0_linear_0_801)" stroke-width="1.55556" />
			</g>
			<path id="Vector_5" d="M55.9991 107.531C44.9193 105.957 34.7773 100.445 27.4311 92.0024C20.0849 83.5602 16.0264 72.7537 15.9991 61.5628V42.8428C16.0003 41.6693 16.3117 40.517 16.9017 39.5026C17.4918 38.4882 18.3396 37.6479 19.3591 37.0668L52.6871 18.0108C53.6966 17.4372 54.8379 17.1356 55.9991 17.1356C57.1602 17.1356 58.3015 17.4372 59.3111 18.0108L92.639 37.0668C93.6586 37.6479 94.5063 38.4882 95.0964 39.5026C95.6865 40.517 95.9979 41.6693 95.999 42.8428V61.4668C95.9981 72.6752 91.9512 83.5065 84.6023 91.9695C77.2535 100.432 67.0966 105.958 55.9991 107.531Z" fill="black" fill-opacity="0.4" />
		</g>
	</g>
	<defs>
		<filter id="filter0_b_0_801" x="-77.7777" y="-77.7778" width="267.556" height="281.118" filterUnits="userSpaceOnUse" color-interpolation-filters="sRGB">
			<feFlood flood-opacity="0" result="BackgroundImageFix" />
			<feGaussianBlur in="BackgroundImageFix" stdDeviation="38.8889" />
			<feComposite in2="SourceAlpha" operator="in" result="effect1_backgroundBlur_0_801" />
			<feBlend mode="normal" in="SourceGraphic" in2="effect1_backgroundBlur_0_801" result="shape" />
		</filter>
		<linearGradient id="paint0_linear_0_801" x1="56" y1="0" x2="56" y2="93.3333" gradientUnits="userSpaceOnUse">
			<stop stop-color="#6042FF" />
			<stop offset="1" stop-color="#6042FF" stop-opacity="0" />
		</linearGradient>
	</defs>
</svg>
